<?xml version="1.0" standalone="no"?>
<!DOCTYPE svg PUBLIC "-//W3C//DTD SVG 20010904//EN"
 "http://www.w3.org/TR/2001/REC-SVG-20010904/DTD/svg10.dtd">
<svg version="1.0" xmlns="http://www.w3.org/2000/svg"
 width="300.000000pt" height="168.000000pt" viewBox="0 0 300.000000 168.000000"
 preserveAspectRatio="xMidYMid meet">
<metadata>
Created by potrace 1.10, written by Peter Selinger 2001-2011
</metadata>
<g transform="translate(0.000000,168.000000) scale(0.100000,-0.100000)"
fill="#000000" stroke="none">
<path d="M1420 1444 c-98 -20 -234 -92 -313 -164 -37 -34 -67 -68 -67 -75 0
-8 -14 -37 -30 -65 -51 -86 -72 -164 -78 -280 -5 -121 10 -198 58 -295 37 -76
149 -210 176 -210 10 0 48 -19 83 -43 77 -50 191 -89 281 -93 53 -3 65 -1 68
12 2 13 -11 17 -72 22 -119 10 -251 67 -336 143 -21 19 -42 34 -48 34 -10 0
-93 101 -123 150 -53 85 -72 249 -45 373 26 117 77 210 161 292 192 190 449
233 688 116 42 -21 80 -35 83 -30 9 15 -3 25 -80 63 -127 63 -267 80 -406 50z"/>
<path d="M1435 1365 c-107 -29 -247 -107 -266 -149 -6 -12 -20 -26 -32 -31
-33 -15 -95 -147 -114 -242 -9 -46 -20 -83 -25 -83 -4 0 -8 -13 -8 -30 0 -19
5 -30 14 -30 8 0 18 -20 25 -47 28 -111 53 -176 87 -230 43 -70 79 -100 98
-84 10 8 17 7 26 -4 38 -45 168 -100 271 -115 96 -14 183 1 288 51 62 29 87
36 97 28 9 -7 20 -6 38 6 22 15 24 19 11 31 -12 13 -26 9 -102 -30 -114 -57
-181 -76 -266 -76 -110 0 -209 31 -309 98 -29 19 -36 28 -28 37 9 10 22 6 63
-21 61 -40 140 -72 216 -86 102 -18 256 24 333 92 34 29 48 36 56 28 19 -19
116 93 142 164 12 33 28 62 36 65 23 8 18 53 -6 53 -24 0 -25 13 -5 44 13 20
13 35 -1 137 -9 62 -21 123 -26 134 -18 33 -92 125 -97 120 -2 -3 10 -22 27
-43 49 -58 69 -102 76 -167 l6 -60 -15 58 c-18 69 -30 93 -72 141 -35 39 -43
43 -43 23 0 -8 12 -19 26 -25 34 -16 71 -99 86 -195 11 -70 10 -78 -6 -90 -17
-12 -13 -47 5 -47 5 0 9 -7 9 -15 0 -8 -9 -15 -20 -15 -17 0 -19 -6 -18 -43 2
-35 -5 -56 -38 -108 -25 -41 -51 -69 -72 -79 -17 -8 -30 -20 -27 -27 7 -19
-68 -79 -131 -104 -49 -19 -77 -23 -164 -23 -115 0 -171 15 -264 74 -45 29
-47 32 -32 49 15 16 14 20 -22 52 -63 57 -91 114 -99 205 -3 43 -6 103 -5 132
6 154 131 304 295 354 184 56 382 -33 469 -210 30 -61 33 -74 33 -162 0 -84
-3 -102 -29 -157 -36 -79 -113 -153 -203 -196 -59 -28 -78 -32 -148 -31 -94 0
-171 26 -231 78 -34 29 -37 35 -25 50 7 9 21 16 31 16 25 0 33 28 11 35 -11 3
-21 14 -24 25 -7 27 -37 37 -48 17 -5 -9 -18 -13 -31 -11 -16 3 -13 -1 9 -11
17 -8 34 -19 38 -25 3 -5 17 -7 31 -4 15 4 24 2 24 -6 0 -7 -7 -10 -15 -6 -9
3 -20 -3 -27 -14 -7 -11 -18 -20 -25 -20 -43 0 36 -83 115 -122 63 -31 73 -33
172 -33 97 0 110 2 170 31 78 37 133 81 126 101 -3 8 -2 11 3 8 6 -3 21 10 35
28 90 117 105 294 37 431 -78 158 -268 261 -438 236 -192 -28 -332 -148 -379
-325 -16 -58 -18 -146 -5 -192 6 -20 5 -35 -2 -42 -15 -15 6 -79 48 -140 28
-43 31 -51 16 -51 -37 0 -71 61 -97 173 -18 75 -33 83 -33 17 0 -23 1 -23 9
-5 7 14 8 9 5 -20 -4 -31 -3 -36 5 -20 8 16 9 13 4 -15 -4 -27 -3 -32 6 -20 9
12 10 11 5 -6 -4 -15 6 -38 29 -73 19 -28 31 -53 27 -56 -22 -13 -65 69 -92
173 -11 42 -22 85 -25 95 -3 9 -1 17 5 17 6 0 11 -10 12 -22 l0 -23 9 21 c5
12 13 25 19 29 14 8 14 55 1 55 -14 0 -12 66 4 128 7 28 29 78 49 111 32 51
43 80 46 116 1 5 8 2 16 -6 14 -14 20 -11 59 26 66 64 158 97 282 103 150 6
251 -27 344 -114 45 -42 48 -43 63 -26 21 23 22 33 3 26 -8 -3 -17 0 -21 6
-14 22 5 22 42 -1 21 -13 40 -22 43 -19 10 11 98 -133 118 -193 47 -145 35
-312 -33 -447 -47 -93 -145 -193 -230 -235 -33 -17 -62 -31 -63 -32 -2 -1 -1
-10 3 -21 6 -20 8 -19 62 11 71 41 192 153 233 217 116 181 116 468 0 640 -53
79 -84 117 -123 150 -34 29 -40 31 -53 18 -13 -13 -13 -16 0 -27 14 -12 13
-16 -9 -33 -24 -19 -27 -19 -51 -3 -14 9 -23 19 -21 22 3 2 18 -3 34 -13 l28
-18 -19 22 c-25 29 -125 78 -201 97 -72 18 -182 18 -250 0z m243 -10 c61 -15
168 -62 159 -71 -2 -2 -33 9 -68 26 -72 33 -190 54 -259 44 -97 -13 -267 -87
-292 -127 -5 -9 -10 -9 -20 1 -8 8 -8 12 -1 12 6 0 34 15 62 34 124 84 280
114 419 81z m-518 -181 c0 -8 -70 -125 -89 -147 -25 -30 -23 -11 5 45 33 65
62 108 75 108 5 0 9 -3 9 -6z m-99 -183 c5 8 6 -16 2 -56 -7 -87 -13 -96 -13
-22 0 30 -2 61 -3 69 -2 7 -2 9 1 4 2 -4 8 -2 13 5z m9 -161 c0 -16 -7 -20
-35 -20 -28 0 -35 4 -35 20 0 16 7 20 35 20 28 0 35 -4 35 -20z m1020 -95 c0
-10 -11 -15 -35 -15 -33 0 -43 8 -28 23 13 14 63 7 63 -8z m-35 -42 c-4 -10
-14 -38 -22 -61 -16 -44 -88 -131 -99 -119 -4 4 4 21 18 39 14 18 39 61 57 96
17 34 36 62 42 62 7 0 8 -7 4 -17z m-215 -138 c-11 -12 -27 -22 -35 -22 -12 0
-11 5 5 22 11 12 27 22 35 22 12 0 11 -5 -5 -22z m-601 -74 c-33 -29 -47 -36
-57 -28 -10 8 -4 20 30 54 37 38 44 41 57 28 13 -12 9 -19 -30 -54z m-49 24
c-27 -29 -40 -32 -40 -10 0 9 10 20 23 25 37 15 42 11 17 -15z"/>
<path d="M1530 1160 c-19 -13 -132 -46 -182 -55 l-38 -6 0 -52 c0 -205 39
-307 162 -433 45 -46 87 -84 93 -84 21 0 172 164 197 215 32 62 45 122 54 249
8 108 5 115 -51 116 -25 0 -109 26 -177 55 -15 6 -18 2 -18 -29 0 -32 2 -35
18 -28 11 6 44 0 102 -18 l85 -28 -3 -78 c-5 -153 -36 -237 -116 -319 -40 -41
-50 -47 -54 -32 -4 22 8 53 82 209 31 65 56 129 56 142 0 33 -35 56 -83 56
-21 0 -51 7 -67 15 -26 13 -32 13 -70 -4 -22 -10 -55 -17 -72 -15 -19 3 -45
-4 -65 -16 l-33 -19 0 34 c0 32 3 35 38 41 20 4 61 15 90 26 42 16 56 17 67 8
13 -11 15 -7 15 24 0 38 -5 42 -30 26z m55 -140 c14 -16 31 -20 76 -20 l57 0
-76 -162 c-73 -156 -76 -165 -74 -228 2 -50 0 -61 -9 -47 -6 10 -9 32 -8 50 2
23 -18 75 -69 182 -39 83 -78 162 -86 178 l-15 27 68 0 c55 0 71 4 86 20 10
11 21 20 25 20 4 0 15 -9 25 -20z m-146 -222 c43 -90 76 -165 74 -168 -9 -9
-94 92 -118 140 -13 25 -26 62 -29 81 -9 50 -14 109 -9 109 2 0 39 -73 82
-162z"/>
<path d="M1534 975 c-10 -8 -33 -15 -50 -15 l-31 0 51 -101 51 -102 46 99 46
99 -28 3 c-15 2 -33 10 -39 18 -15 18 -21 18 -46 -1z m46 -20 c11 -13 10 -22
-4 -52 l-17 -36 -20 32 c-23 39 -23 40 -1 57 22 17 27 17 42 -1z"/>
<path d="M1865 1015 c22 -59 27 -98 22 -174 -3 -50 -1 -78 4 -70 23 37 5 225
-24 254 -7 7 -7 3 -2 -10z"/>
<path d="M1220 984 c-15 -45 -9 -211 9 -240 11 -17 12 -15 6 11 -14 77 -17
184 -5 219 6 21 10 40 7 42 -3 3 -11 -11 -17 -32z"/>
<path d="M1259 935 c-3 -2 -1 -39 4 -82 5 -43 9 -86 10 -95 1 -10 9 -18 19
-18 18 0 18 1 1 27 -11 17 -18 50 -20 96 -2 67 -5 82 -14 72z"/>
<path d="M1847 900 c4 -23 1 -34 -13 -45 -18 -14 -18 -14 4 -15 18 0 22 5 22
29 0 16 3 36 6 45 4 10 1 16 -10 16 -12 0 -14 -7 -9 -30z"/>
<path d="M1844 702 c3 -5 -7 -21 -23 -36 l-28 -27 -7 25 c-6 25 -26 37 -26 16
0 -5 4 -10 9 -10 5 0 11 -9 14 -20 4 -14 -4 -25 -30 -41 -37 -23 -39 -38 -2
-18 29 15 119 99 119 110 0 5 -7 9 -16 9 -8 0 -13 -4 -10 -8z"/>
</g>
</svg>
